<?xml version="1.0" encoding="UTF-8"?>
<svg fill="currentColor" id="Layer_2" xmlns="http://www.w3.org/2000/svg" viewBox="0 0 438 216">
    <g id="Layer_1-2">
        <g>
            <path
                d="m256.03,0h-74.06c-19.28,0-34.97,15.54-34.97,34.64v146.72c0,19.1,15.69,34.64,34.97,34.64h74.06c19.28,0,34.97-15.54,34.97-34.64V34.64c0-19.1-15.69-34.64-34.97-34.64Z" />
            <path
                d="m73.5,0v72c0,.83-.67,1.5-1.5,1.5s-1.5-.67-1.5-1.5V0H0v144h36c19.88,0,36,16.12,36,36v36h72V0h-70.5Z" />
            <path
                d="m367.5,0v72c0,.83-.67,1.5-1.5,1.5s-1.5-.67-1.5-1.5V0h-70.5v144h36c19.88,0,36,16.12,36,36v36h72V0h-70.5Z" />
        </g>
    </g>
</svg>