<?xml version="1.0" encoding="UTF-8"?>
<svg fill="currentColor" xmlns="http://www.w3.org/2000/svg" viewBox="0 0 716 212">
    <g id="clip-path">
        <path
            d="m144,34v144c0,18.75,15.25,34,34,34h106v-68h-70v-4h70v-68h-70v-4h70V0h-106c-18.75,0-34,15.25-34,34Z" />
        <rect x="576" width="140" height="212" rx="34" ry="34" />
        <polygon
            points="288 68 358 68 358 70 358 72 288 72 288 212 428 212 428 144 358 144 358 140 428 140 428 0 288 0 288 68" />
        <path
            d="m538,0h-106v140h70v4h-70v68h106c18.75,0,34-15.25,34-34v-106h-70v-4h70v-34c0-18.75-15.25-34-34-34Z" />
        <path d="m106,0H0v212h106c18.75,0,34-15.25,34-34V34C140,15.25,124.75,0,106,0Z" />
    </g>
</svg>